<?xml version="1.0" standalone="no"?>
<!DOCTYPE svg PUBLIC "-//W3C//DTD SVG 20010904//EN"
 "http://www.w3.org/TR/2001/REC-SVG-20010904/DTD/svg10.dtd">
<svg version="1.0" xmlns="http://www.w3.org/2000/svg"
 width="736.000000pt" height="460.000000pt" viewBox="0 0 736.000000 460.000000"
 preserveAspectRatio="xMidYMid meet">

<g transform="translate(0.000000,460.000000) scale(0.100000,-0.100000)"
fill="#000000" stroke="none">
<path d="M0 2300 l0 -2300 3680 0 3680 0 0 2300 0 2300 -3680 0 -3680 0 0
-2300z m3020 1740 c0 -5 -4 -10 -10 -10 -5 0 -10 5 -10 10 0 6 5 10 10 10 6 0
10 -4 10 -10z m-1200 -105 c0 -8 -4 -15 -10 -15 -5 0 -10 7 -10 15 0 8 5 15
10 15 6 0 10 -7 10 -15z m3791 -35 c23 -13 26 -50 4 -50 -9 0 -18 -6 -21 -13
-3 -8 -10 -14 -17 -15 -7 0 -22 -4 -34 -7 -18 -6 -23 -3 -23 11 0 37 12 62 33
72 29 14 35 14 58 2z m-162 -69 c21 -14 4 -46 -32 -59 -45 -16 -47 -16 -47 12
0 14 10 32 22 40 25 18 37 19 57 7z m-944 -188 c-37 -70 -76 -141 -85 -158
-10 -16 -41 -75 -71 -130 -29 -55 -87 -163 -129 -241 -41 -77 -138 -258 -215
-402 -77 -144 -146 -262 -153 -262 -30 0 -18 35 56 166 44 76 150 265 236 419
264 471 420 744 424 740 2 -2 -27 -61 -63 -132z m436 107 c36 -20 24 -37 -58
-82 l-33 -18 0 37 c0 60 42 89 91 63z m-3716 -50 c3 -5 1 -10 -4 -10 -6 0 -11
5 -11 10 0 6 2 10 4 10 3 0 8 -4 11 -10z m3563 -52 c-2 -14 -15 -29 -33 -37
-16 -8 -33 -18 -36 -24 -4 -5 -10 0 -14 12 -10 34 19 71 56 71 26 0 30 -3 27
-22z m573 -213 c5 4 9 12 9 18 0 7 4 18 9 26 7 11 14 9 37 -13 16 -14 31 -26
35 -26 3 0 12 14 20 30 l14 30 27 -25 c27 -25 27 -25 11 -63 -10 -20 -19 -39
-20 -41 -2 -2 -11 3 -21 12 -10 10 -24 17 -30 17 -13 0 -26 -43 -19 -62 3 -7
6 -4 6 7 1 11 6 27 11 35 8 12 13 11 33 -9 l25 -23 11 35 c7 19 20 42 30 51
21 19 22 17 36 -74 16 -107 68 -387 74 -398 4 -7 273 -147 597 -310 324 -163
599 -303 609 -309 19 -12 19 -13 -5 -33 -14 -11 -31 -20 -38 -20 -7 0 -133 61
-280 136 -147 75 -395 202 -552 281 -157 80 -291 150 -297 155 -22 18 -15 -20
8 -43 11 -11 63 -41 115 -65 56 -27 92 -49 88 -56 -4 -7 1 -8 16 -3 17 5 21 4
15 -5 -5 -8 -4 -11 2 -7 6 4 49 -13 95 -37 45 -24 108 -56 138 -72 30 -16 58
-32 61 -37 3 -5 10 -9 15 -8 15 0 94 -42 94 -51 0 -13 -18 -9 -23 5 -3 7 -6 8
-6 1 -1 -14 38 -64 50 -64 5 0 9 7 9 15 0 8 -3 14 -7 14 -20 -3 -25 2 -14 15
9 11 24 7 84 -22 82 -40 82 -40 75 -48 -3 -3 -31 9 -62 25 -41 23 -56 27 -56
17 0 -20 -40 -32 -51 -15 -7 11 -12 9 -24 -8 -13 -19 -19 -21 -35 -11 -10 7
-16 16 -13 22 4 5 -1 7 -12 2 -10 -4 -21 -3 -24 2 -6 8 -142 76 -151 75 -3 -1
-10 4 -16 11 -8 9 -8 17 1 29 11 15 13 16 19 2 3 -8 0 -15 -7 -16 -7 0 4 -6
23 -13 19 -7 40 -12 45 -11 6 1 7 0 2 -2 -13 -8 3 -22 18 -16 8 3 15 0 15 -6
0 -6 7 -11 15 -11 9 0 12 6 8 16 -5 14 -3 14 15 3 14 -9 18 -17 11 -25 -13
-15 14 -26 49 -19 23 4 24 4 7 -4 -11 -5 -14 -10 -7 -10 7 -1 10 -5 7 -11 -3
-6 0 -10 8 -10 22 0 28 27 11 45 -19 18 -26 19 -42 3 -6 -6 -15 -8 -19 -4 -4
4 -1 11 6 15 9 6 10 11 3 15 -6 4 -8 14 -5 23 4 11 3 14 -5 9 -7 -4 -12 -2
-12 3 0 6 -6 11 -14 11 -8 0 -16 3 -18 8 -1 4 -27 19 -55 34 -48 25 -54 25
-64 10 -10 -16 -10 -16 -5 1 4 11 -1 20 -12 24 -9 4 -21 12 -27 19 -13 16
-160 67 -177 62 -7 -3 3 -8 24 -12 20 -3 39 -14 42 -23 6 -14 4 -14 -18 1 -25
16 -56 23 -43 9 4 -3 -3 -11 -16 -18 -15 -8 -24 -8 -29 -1 -4 6 -10 7 -14 4
-23 -23 42 -64 333 -211 169 -85 370 -187 447 -226 76 -39 145 -71 152 -71 8
0 14 -3 14 -7 0 -12 -78 -15 -85 -3 -3 5 -11 10 -16 10 -6 0 -7 -4 -4 -10 3
-5 1 -10 -5 -10 -7 0 -9 8 -5 19 5 15 -1 20 -30 25 -20 4 -39 14 -42 22 -3 7
-11 14 -19 14 -8 0 -14 4 -14 9 0 5 -9 7 -20 4 -11 -3 -20 -1 -20 5 0 14 -62
45 -69 34 -11 -16 -56 -11 -90 10 -19 12 -29 24 -23 26 17 5 15 29 -4 36 -24
9 -31 7 -38 -10 -9 -24 73 -84 115 -84 11 0 19 -7 19 -16 0 -9 -4 -14 -8 -12
-4 2 -101 50 -215 107 -198 98 -253 131 -157 94 33 -13 45 -14 48 -5 2 7 9 12
15 12 8 0 7 -4 -1 -12 -7 -7 -12 -16 -12 -22 0 -5 3 -7 6 -3 4 3 27 -5 51 -19
24 -13 42 -20 38 -14 -3 5 0 10 8 10 8 0 17 -10 21 -22 5 -19 8 -21 16 -8 8
12 12 13 19 2 7 -11 9 -11 14 2 5 13 -7 22 -48 41 -30 13 -55 29 -55 34 0 6
-6 11 -14 11 -7 0 -27 7 -42 15 -16 8 -36 15 -44 15 -8 0 -20 8 -27 19 -14 22
-133 83 -133 68 0 -6 -10 -2 -22 9 -16 14 -20 15 -16 4 4 -11 -1 -16 -16 -17
-11 0 -15 1 -8 4 6 3 12 12 12 20 0 21 -26 0 -33 -27 -4 -16 0 -18 29 -14 29
3 33 2 22 -10 -9 -10 -17 -11 -25 -4 -10 8 -13 6 -13 -6 0 -16 -1 -16 -16 -2
-8 9 -12 20 -9 26 7 11 -9 12 -45 0 -24 -8 -24 -8 -2 -9 12 -1 22 -7 22 -16 0
-9 6 -12 18 -8 16 5 16 5 0 -8 -15 -13 -15 -18 -3 -54 21 -57 20 -61 -27 -89
-52 -31 -229 -102 -279 -111 -31 -6 -38 -3 -53 19 -14 22 -14 26 -2 26 8 0 18
5 22 11 4 8 -3 9 -25 4 -36 -8 -91 2 -91 16 0 13 68 42 210 90 63 22 97 37 75
34 -22 -4 -105 -31 -185 -61 -130 -49 -155 -56 -246 -61 -122 -7 -149 -1 -167
35 -31 59 -31 207 -1 195 8 -3 14 0 14 5 0 17 42 10 69 -10 28 -21 70 -22 126
-2 l40 13 -40 -6 c-95 -17 -145 -3 -145 40 0 24 27 57 47 57 8 0 27 7 44 15
29 15 30 15 78 -26 30 -26 51 -54 55 -71 8 -39 36 -37 36 2 0 31 23 42 34 18
5 -10 7 -10 12 0 7 15 66 16 81 1 7 -7 24 11 57 59 40 58 48 77 48 116 0 105
-60 157 -186 161 -58 2 -81 7 -107 25 l-34 24 24 -26 23 -26 -30 -16 c-17 -9
-40 -29 -52 -46 l-22 -31 -26 26 c-28 29 -45 34 -117 38 -54 4 -78 -8 -146
-71 -35 -33 -36 -33 -42 -11 -3 13 2 38 14 61 19 36 19 41 3 101 -24 95 -85
280 -96 295 -19 22 27 14 66 -13 20 -14 39 -25 41 -25 2 0 6 14 10 30 8 35 18
37 45 10 11 -11 23 -20 27 -20 10 0 -29 41 -50 51 -15 8 -20 5 -28 -20 -16
-47 -39 -29 -39 30 l0 50 30 -16 c16 -8 31 -15 34 -15 3 0 8 20 12 45 3 25 10
45 14 45 4 0 19 -9 33 -20 14 -11 30 -20 35 -20 6 0 18 23 27 51 l17 51 37
-36 c20 -20 40 -36 43 -36 4 0 14 21 24 46 l18 47 28 -32 c15 -17 30 -31 33
-31 3 0 15 23 27 51 l22 51 39 -41 c21 -23 42 -39 48 -36z m777 47 c16 -21 15
-32 -3 -32 -8 0 -15 -4 -15 -8 0 -5 -6 -9 -12 -9 -7 -1 -28 -4 -45 -8 -29 -7
-33 -5 -33 14 0 12 11 33 25 47 27 27 59 26 83 -4z m-178 -43 c0 -13 -11 -25
-35 -35 -44 -18 -55 -18 -55 3 0 26 31 53 62 53 22 0 28 -5 28 -21z m-3490
-149 c0 -5 -4 -10 -10 -10 -5 0 -10 5 -10 10 0 6 5 10 10 10 6 0 10 -4 10 -10z
m2110 -45 c10 -11 9 -18 -4 -30 -9 -9 -16 -22 -16 -28 0 -8 -3 -8 -9 1 -6 11
-10 10 -15 -3 -4 -10 -12 -15 -22 -11 -9 4 -13 2 -8 -5 4 -7 1 -10 -7 -7 -21
7 -23 57 -3 79 20 23 67 25 84 4z m-165 -94 c0 -29 -64 -69 -77 -48 -12 19
-10 26 17 53 31 31 60 28 60 -5z m1065 -286 c17 -9 40 -30 50 -48 42 -68 12
-186 -47 -188 -16 -1 -39 -5 -53 -10 -18 -6 -10 -7 25 -3 l50 6 -24 -26 c-14
-15 -29 -22 -35 -18 -6 5 -36 8 -66 7 -55 -1 -55 -2 -61 -36 l-5 -34 -8 38
c-5 20 -12 37 -17 37 -5 0 -9 5 -9 10 0 7 14 9 38 5 33 -5 34 -4 12 5 -14 6
-39 9 -56 6 -34 -7 -65 18 -83 67 -29 76 11 166 87 194 36 14 168 6 202 -12z
m-341 -42 c25 -24 30 -38 35 -95 5 -61 3 -69 -17 -83 -12 -8 -29 -15 -37 -15
-25 0 -76 -43 -72 -61 2 -13 -6 -18 -38 -21 -46 -4 -76 16 -49 33 10 6 4 8
-20 7 -29 -3 -37 2 -52 27 -38 64 -33 131 13 175 48 46 81 60 145 60 55 0 66
-4 92 -27z m754 -203 c26 -21 42 -26 33 -11 -3 4 6 6 20 3 19 -3 22 -7 13 -18
-14 -17 -5 -18 22 -3 16 8 18 13 8 25 -8 10 -8 14 0 14 6 0 11 -4 11 -10 0 -5
8 -10 18 -10 16 -1 16 -1 0 -11 -23 -13 -12 -42 13 -36 20 5 27 -17 9 -28 -14
-9 -51 18 -45 34 4 11 2 11 -8 2 -11 -9 -29 -4 -81 22 -36 19 -63 37 -59 40
10 11 18 8 46 -13z m257 -70 c12 -8 11 -10 -7 -10 -12 0 -25 5 -28 10 -8 13
15 13 35 0z m-240 -51 c0 -5 -7 -9 -15 -9 -8 0 -15 -4 -15 -10 0 -5 5 -10 12
-10 6 0 9 -3 5 -6 -8 -8 -47 5 -47 17 0 5 7 9 15 9 9 0 18 7 21 15 6 15 24 11
24 -6z m75 -29 c3 -5 -1 -10 -9 -10 -8 0 -18 5 -21 10 -3 6 1 10 9 10 8 0 18
-4 21 -10z m1 -31 c3 -5 -2 -6 -11 -2 -10 3 -21 0 -26 -8 -6 -10 -9 -10 -9 -1
0 6 -7 12 -16 12 -8 0 -13 4 -10 8 6 11 64 3 72 -9z m68 -31 c-3 -4 -16 -1
-30 8 -32 21 -30 25 5 11 17 -6 28 -14 25 -19z m345 -11 c-13 -10 -14 -16 -5
-28 18 -25 46 -31 46 -11 0 15 2 15 10 2 6 -10 25 -15 60 -13 27 0 50 -1 50
-3 0 -2 -15 -10 -32 -18 -18 -8 -27 -15 -19 -15 8 -1 23 -8 33 -18 13 -12 18
-13 18 -3 0 8 7 6 18 -7 17 -20 48 -21 36 -1 -5 7 -2 8 5 4 7 -5 10 -14 8 -21
-3 -7 12 -22 36 -35 24 -14 36 -25 28 -28 -7 -2 -16 -1 -20 4 -8 12 -195 104
-210 104 -6 0 -11 4 -11 8 0 5 -18 15 -40 22 -22 7 -40 16 -40 21 0 4 -11 10
-25 13 -35 9 -32 23 4 18 16 -2 32 1 35 7 4 6 13 11 19 11 7 -1 5 -6 -4 -13z
m-269 -7 c0 -5 -4 -10 -10 -10 -5 0 -10 5 -10 10 0 6 5 10 10 10 6 0 10 -4 10
-10z m298 -4 c-7 -8 -15 -12 -17 -11 -5 6 10 25 20 25 5 0 4 -6 -3 -14z m142
-17 c0 -4 15 -12 33 -19 17 -7 27 -14 20 -17 -15 -5 -83 26 -83 38 0 6 -8 5
-19 -1 -30 -16 -37 -12 -15 9 15 14 24 16 42 8 12 -6 22 -14 22 -18z m-412
-90 c119 -61 222 -116 229 -121 7 -5 22 -7 34 -3 14 5 19 4 15 -4 -4 -6 -14
-11 -22 -11 -8 0 -14 -4 -14 -9 0 -5 -9 -7 -20 -4 -27 7 -25 -5 3 -17 18 -7
15 -9 -20 -9 -32 -1 -43 3 -43 14 0 8 -8 15 -17 16 -12 0 -13 2 -5 6 7 3 20
-1 28 -8 10 -8 18 -9 22 -2 4 5 14 13 22 17 8 3 2 3 -15 0 -16 -3 -27 -2 -23
2 4 4 -2 13 -15 19 -12 7 -42 24 -67 37 -25 14 -51 23 -57 21 -7 -3 -13 0 -13
7 0 6 -4 9 -9 5 -5 -3 -12 -1 -16 5 -3 5 -36 24 -73 42 -37 17 -69 35 -72 38
-3 3 -12 6 -20 5 -18 0 -27 -45 -10 -45 7 0 10 7 6 15 -3 9 0 15 10 15 11 0
12 -5 6 -17 -5 -10 -7 -24 -4 -32 3 -9 -3 -7 -16 5 -12 11 -24 37 -26 58 -3
21 -11 44 -17 52 -6 8 -9 14 -5 14 3 0 104 -50 224 -111z m2 81 c0 -5 -2 -10
-4 -10 -3 0 -8 5 -11 10 -3 6 -1 10 4 10 6 0 11 -4 11 -10z m425 -40 c4 -6 16
-8 27 -4 14 4 18 2 14 -5 -9 -14 -43 -14 -51 -1 -4 6 -11 7 -17 4 -7 -4 -8 -2
-4 4 9 15 23 15 31 2z m143 -31 l80 -42 -4 -56 c-2 -31 -3 -95 -3 -143 0 -47
-4 -89 -9 -92 -5 -3 -9 7 -10 22 0 15 -2 54 -3 87 -1 33 1 68 5 77 4 9 3 26
-3 37 -7 12 -7 22 -1 26 11 7 2 35 -11 35 -5 0 -9 -16 -9 -35 0 -39 -7 -42
-36 -19 -18 14 -18 15 5 8 19 -5 23 -3 18 8 -3 8 -1 21 3 29 12 18 -8 41 -29
34 -9 -2 -23 0 -31 6 -12 8 -9 9 10 5 25 -6 25 -6 3 5 -13 7 -23 16 -23 21 0
5 -9 6 -20 3 -14 -5 -20 -2 -20 9 0 9 2 16 4 16 2 0 40 -19 84 -41z m-702 -14
c-3 -20 -16 -31 -16 -13 0 13 8 28 16 28 1 0 1 -7 0 -15z m28 -19 c-3 -13 -1
-27 5 -30 7 -5 11 3 11 20 0 33 5 29 14 -9 6 -25 4 -28 -16 -25 -23 3 -34 28
-24 54 9 23 17 16 10 -10z m641 -7 c11 -17 2 -18 -25 -4 -24 14 -24 14 -3 15
12 0 25 -5 28 -11z m-560 -16 c18 -14 18 -15 2 -9 -10 3 -23 6 -28 6 -5 0 -9
5 -9 10 0 14 12 12 35 -7z m592 -15 c-3 -7 -5 -2 -5 12 0 14 2 19 5 13 2 -7 2
-19 0 -25z m-1502 -5 c17 -9 31 -17 33 -18 2 -1 -5 -18 -14 -37 -12 -25 -22
-34 -38 -33 -13 1 -14 1 -3 -2 21 -5 21 -5 2 -68 -9 -27 -18 -68 -20 -90 -9
-73 -70 -305 -81 -305 -1 0 -56 28 -121 62 -65 33 -167 87 -227 118 -61 31
-112 62 -113 67 -7 20 188 172 316 247 143 83 194 94 266 59z m804 -5 c15 -43
8 -45 -11 -3 -8 19 -12 35 -8 35 5 0 13 -14 19 -32z m74 -13 c-18 -8 -33 -18
-33 -24 0 -16 62 -42 74 -31 8 6 16 2 25 -12 12 -20 12 -21 -20 -14 -18 3 -35
10 -39 15 -3 4 -15 11 -27 15 -13 4 -23 11 -23 16 0 5 -3 16 -7 26 -4 12 -3
15 5 10 7 -4 20 -2 29 3 10 6 25 10 33 10 8 0 0 -6 -17 -14z m337 -6 c0 -11
-4 -17 -10 -14 -5 3 -10 13 -10 21 0 8 5 14 10 14 6 0 10 -9 10 -21z m-190 1
c0 -5 -7 -7 -15 -4 -8 4 -15 8 -15 10 0 2 7 4 15 4 8 0 15 -4 15 -10z m-120
-10 c-8 -5 -22 -10 -30 -10 -13 0 -13 1 0 10 8 5 22 10 30 10 13 0 13 -1 0
-10z m144 -19 c3 -5 -3 -11 -13 -14 -14 -3 -18 -1 -14 9 6 16 19 18 27 5z
m-214 -50 c0 -5 15 -15 34 -21 47 -15 64 -36 37 -45 -11 -3 -29 -1 -38 5 -15
8 -12 9 12 4 l30 -6 -25 14 c-67 38 -87 58 -60 58 6 0 10 -4 10 -9z m166 0
c-3 -5 6 -8 20 -8 14 0 31 -6 37 -12 8 -8 7 -11 -3 -11 -11 0 -11 -3 -2 -12
10 -10 15 -10 22 2 8 12 10 10 10 -7 0 -22 9 -27 38 -24 6 1 12 -5 12 -14 0
-8 5 -15 10 -15 6 0 10 -4 10 -10 0 -10 -63 20 -68 33 -2 4 -8 7 -14 7 -5 0
-32 11 -60 25 -27 14 -57 25 -66 26 -10 0 -5 6 13 14 35 17 48 18 41 6z m-158
-56 c-3 -3 -9 2 -12 12 -6 14 -5 15 5 6 7 -7 10 -15 7 -18z m302 6 c7 -11 16
-18 20 -16 3 2 12 -1 20 -7 12 -8 11 -9 -3 -4 -12 4 -17 2 -14 -6 2 -8 16 -12
33 -10 28 3 28 3 9 -12 -23 -18 -5 -22 26 -6 24 13 25 6 2 -17 -21 -21 -59
-10 -69 19 -3 10 -10 18 -15 18 -6 0 -7 5 -4 10 3 6 0 13 -9 16 -15 6 -30 34
-18 34 4 0 14 -9 22 -19z m-180 -21 c0 -5 7 -10 15 -10 9 0 18 -7 21 -15 4 -8
10 -12 15 -10 5 3 23 -2 41 -12 18 -9 36 -16 41 -15 4 1 7 -1 7 -6 0 -4 15
-14 33 -22 25 -11 28 -15 13 -18 -10 -2 -23 1 -29 7 -6 6 -19 11 -29 11 -10 0
-18 5 -18 11 0 6 -7 9 -15 5 -9 -3 -15 0 -15 8 0 19 -25 27 -39 13 -8 -8 -11
-7 -11 6 0 9 -3 17 -7 17 -5 0 -19 9 -33 20 -20 16 -22 20 -7 20 9 0 17 -4 17
-10z m-113 -47 c-3 -10 -5 -2 -5 17 0 19 2 27 5 18 2 -10 2 -26 0 -35z m398
37 c3 -6 -1 -7 -9 -4 -18 7 -21 14 -7 14 6 0 13 -4 16 -10z m129 -6 c10 -25
-1 -29 -14 -5 -6 12 -7 21 -1 21 5 0 12 -7 15 -16z m71 7 c-3 -2 2 -16 10 -32
8 -15 15 -36 14 -46 0 -10 -3 -13 -6 -6 -3 10 -10 9 -28 -3 -19 -12 -25 -12
-36 -2 -8 7 -20 13 -28 13 -8 0 -15 6 -17 13 -1 7 0 8 3 2 8 -16 23 -12 23 8
1 15 2 15 10 1 13 -22 54 -19 58 3 2 12 -5 21 -21 27 -38 15 -42 31 -8 28 16
-1 28 -4 26 -6z m35 -17 c0 -8 -5 -12 -10 -9 -6 4 -8 11 -5 16 9 14 15 11 15
-7z m-500 -35 c0 -6 9 -9 20 -6 22 6 26 -3 8 -21 -9 -9 -8 -13 5 -17 9 -4 13
-13 10 -22 -5 -12 -3 -14 7 -8 9 5 11 4 6 -3 -12 -20 -35 -14 -29 8 7 25 -22
38 -49 21 -11 -7 -28 -9 -38 -6 -18 6 -18 7 -2 24 10 10 21 14 27 10 5 -5 16
-9 25 -9 13 1 12 3 -2 14 -22 16 -23 26 -3 26 8 0 15 -5 15 -11z m526 -24 c-2
-7 1 -18 7 -24 9 -10 8 -15 -5 -25 -10 -7 -18 -18 -18 -25 0 -6 -5 -11 -11
-11 -5 0 -7 5 -3 11 13 21 22 79 13 85 -5 3 -9 10 -9 16 0 6 6 6 15 -2 9 -7
14 -19 11 -25z m34 14 c0 -5 -4 -9 -10 -9 -5 0 -10 7 -10 16 0 8 5 12 10 9 6
-3 10 -10 10 -16z m-216 -26 c18 -6 18 -7 -3 -14 -12 -5 -30 -5 -39 0 -9 5
-25 12 -35 15 -10 3 -16 10 -12 15 3 6 18 6 38 -1 17 -5 41 -12 51 -15z m-432
3 l-24 -13 34 -13 c18 -7 49 -20 68 -28 19 -9 39 -15 43 -14 5 1 6 -1 3 -6 -6
-11 52 -9 76 2 10 4 23 6 30 3 7 -3 3 -6 -9 -6 -13 -1 -21 -6 -19 -13 1 -7 1
-10 -1 -7 -2 4 -14 4 -25 1 -17 -4 -10 -9 32 -23 41 -13 56 -15 62 -6 5 8 8 6
8 -5 0 -10 -6 -18 -12 -18 -9 0 -8 -4 2 -10 30 -19 1 -9 -61 21 -250 121 -251
122 -227 136 13 7 28 12 33 12 6 0 -1 -6 -13 -13z m318 -40 c0 -4 -7 -3 -15 4
-12 10 -15 10 -15 -3 0 -8 6 -17 13 -20 6 -2 -1 -4 -17 -4 -20 0 -24 2 -15 9
10 6 4 8 -18 5 -18 -2 -33 0 -33 5 0 4 9 8 20 8 10 0 25 6 32 14 10 10 17 11
30 2 10 -6 18 -15 18 -20z m180 24 c0 -5 -7 -10 -15 -10 -8 0 -15 5 -15 10 0
6 7 10 15 10 8 0 15 -4 15 -10z m-403 -16 c-3 -3 -12 -4 -19 -1 -8 3 -5 6 6 6
11 1 17 -2 13 -5z m463 -9 c0 -8 -7 -15 -15 -15 -16 0 -20 12 -8 23 11 12 23
8 23 -8z m116 -132 c-3 -82 -5 -156 -6 -165 0 -27 -22 -22 -112 23 -60 30 -77
43 -67 50 8 5 10 9 5 9 -5 0 -3 7 4 15 7 8 18 15 24 15 6 0 3 -6 -6 -13 -11
-9 -14 -18 -7 -28 5 -8 9 -10 9 -5 0 5 7 3 16 -5 13 -10 17 -10 24 1 5 8 12
11 17 7 4 -5 1 -12 -7 -18 -13 -8 -12 -11 5 -21 11 -7 29 -13 39 -13 11 -1 22
-7 24 -13 2 -7 7 -12 11 -12 12 0 8 224 -4 233 -6 6 -6 10 3 14 15 6 16 30 1
35 -8 3 -6 10 5 21 10 9 19 17 22 17 2 0 2 -66 0 -147z m-264 100 c40 -20 76
-41 79 -46 4 -5 12 -6 18 -3 6 4 11 1 11 -6 0 -8 -11 -15 -26 -16 -17 -1 -23
2 -18 10 5 7 0 9 -14 6 -12 -4 -22 -2 -22 3 0 11 -41 -9 -51 -23 -4 -6 -15 -8
-25 -6 -26 6 51 41 86 39 20 -1 22 1 10 9 -20 13 -47 12 -73 -2 -28 -15 -69
-20 -62 -7 4 5 15 9 25 9 26 0 50 10 50 22 0 6 -9 8 -19 5 -13 -3 -18 -1 -14
8 3 9 -3 13 -20 11 -18 -2 -24 1 -20 10 7 18 2 19 85 -23z m108 25 c0 -5 -6
-8 -12 -8 -7 -1 2 -7 20 -15 18 -8 31 -19 27 -25 -9 -14 -35 -12 -35 3 0 6
-21 22 -48 34 l-47 23 47 -3 c27 -1 48 -5 48 -9z m-251 -45 c-7 -10 -14 -20
-16 -22 -1 -1 -7 0 -14 4 -8 6 -4 12 12 21 32 18 34 17 18 -3z m-1666 -37 c77
-38 97 -58 37 -38 -17 6 -37 9 -45 5 -11 -4 -13 -1 -9 11 7 18 -3 20 -25 7
-11 -7 -9 -11 9 -21 12 -6 24 -9 27 -6 3 3 12 -2 18 -11 11 -15 17 -15 51 -4
38 12 41 11 174 -57 115 -59 135 -72 133 -91 -2 -18 1 -20 21 -15 16 4 36 -1
56 -12 39 -24 84 -88 77 -111 -3 -10 -13 -38 -22 -63 -15 -41 -17 -139 -4
-188 6 -22 -45 -54 -92 -59 -95 -9 -122 44 -117 227 3 90 6 110 26 137 12 17
22 35 22 41 0 5 -60 39 -132 76 -73 37 -155 79 -183 95 -27 15 -60 33 -73 40
-19 10 -21 15 -11 27 6 8 9 17 5 21 -3 3 -6 1 -6 -5 0 -23 -18 -12 -23 13 -2
14 -2 24 2 23 3 -2 41 -20 84 -42z m1701 9 c-4 -8 -8 -15 -10 -15 -2 0 -4 7
-4 15 0 8 4 15 10 15 5 0 7 -7 4 -15z m26 -25 c0 -5 -7 -10 -16 -10 -8 0 -13
-4 -10 -9 3 -5 15 -7 26 -4 13 3 20 0 20 -8 0 -11 2 -11 10 1 8 13 10 12 10
-2 0 -10 7 -18 15 -18 9 0 12 6 9 15 -4 8 -1 15 5 15 6 0 11 -9 11 -20 0 -22
16 -27 23 -7 2 6 3 4 2 -5 -2 -10 2 -18 8 -18 8 0 7 -3 -1 -9 -10 -6 -9 -10 7
-14 12 -3 21 -10 21 -15 0 -5 -40 11 -90 36 -87 44 -108 66 -72 75 9 3 18 5
20 6 1 0 2 -3 2 -9z m277 -10 c3 -10 2 -11 -4 -4 -4 7 -19 14 -33 17 -22 4
-21 5 4 4 17 -1 31 -9 33 -17z m30 -27 c-3 -10 -5 -4 -5 12 0 17 2 24 5 18 2
-7 2 -21 0 -30z m-61 -294 c10 -8 -10 -23 -89 -63 -127 -64 -264 -157 -348
-237 l-64 -60 -235 117 c-230 115 -234 118 -205 130 19 8 38 9 53 3 32 -12 32
-12 32 19 0 15 11 44 25 65 14 20 22 37 17 37 -14 0 -42 -46 -49 -80 -6 -32
-20 -39 -29 -15 -10 24 5 80 29 116 27 40 44 40 155 2 41 -13 75 -23 76 -21
33 45 47 72 53 102 l8 36 110 -54 c61 -29 136 -69 167 -89 62 -40 78 -45 78
-23 0 15 -123 87 -263 154 -48 24 -90 48 -92 55 -2 7 -5 33 -8 59 l-4 47 285
-144 c157 -80 291 -150 298 -156z m-1971 244 l35 -17 0 -88 c0 -48 -2 -88 -5
-88 -11 0 -84 40 -89 49 -6 9 13 161 20 161 2 0 19 -8 39 -17z m2012 -30 c-3
-10 -5 -4 -5 12 0 17 2 24 5 18 2 -7 2 -21 0 -30z m-248 8 c10 -6 12 -19 7
-45 -7 -36 -7 -36 -32 -19 -15 9 -23 22 -20 30 4 8 6 21 6 29 0 16 18 18 39 5z
m268 -43 c-2 -13 -4 -5 -4 17 -1 22 1 32 4 23 2 -10 2 -28 0 -40z m-1838 -38
c0 -4 -111 -79 -131 -88 -4 -2 -6 14 -4 35 2 21 4 56 5 79 l1 41 65 -31 c35
-17 65 -33 64 -36z m1625 34 c3 -8 2 -12 -4 -9 -6 3 -10 10 -10 16 0 14 7 11
14 -7z m-2469 -24 c-3 -5 -11 -10 -16 -10 -6 0 -7 5 -4 10 3 6 11 10 16 10 6
0 7 -4 4 -10z m555 -36 c0 -22 -2 -24 -15 -14 -11 9 -12 15 -2 25 16 19 17 19
17 -11z m997 -6 c34 -37 53 -84 56 -135 2 -38 -1 -48 -15 -51 -13 -2 -18 3
-19 20 -3 53 -18 -75 -18 -160 l-1 -93 -35 -15 c-48 -20 -118 -18 -143 4 -17
14 -23 36 -31 126 -13 129 -6 206 23 249 49 73 141 100 183 55z m-647 -8 c0
-5 -5 -10 -11 -10 -5 0 -7 5 -4 10 3 6 8 10 11 10 2 0 4 -4 4 -10z m-386 -39
c-6 -6 -24 19 -24 34 1 6 7 1 15 -9 8 -11 12 -22 9 -25z m340 25 c-21 -15 -30
-14 -19 3 3 6 14 11 23 11 13 0 13 -2 -4 -14z m-50 -31 c-10 -8 -23 -14 -29
-14 -5 0 -1 6 9 14 11 8 24 15 30 15 5 0 1 -7 -10 -15z m-187 -21 c-3 -3 -12
-4 -19 -1 -8 3 -5 6 6 6 11 1 17 -2 13 -5z m158 -12 c-3 -3 -11 0 -18 7 -9 10
-8 11 6 5 10 -3 15 -9 12 -12z m-120 -2 c3 -6 -1 -7 -9 -4 -18 7 -21 14 -7 14
6 0 13 -4 16 -10z m95 -9 c0 -5 -14 -14 -30 -20 -18 -6 -28 -6 -25 -1 4 6 13
10 21 10 8 0 12 5 9 10 -3 6 1 10 9 10 9 0 16 -4 16 -9z m-220 -11 c-12 -8
-12 -10 -1 -10 8 0 12 -3 8 -6 -3 -4 -14 -3 -24 0 -15 6 -15 8 -3 16 8 6 20
10 25 10 6 0 3 -5 -5 -10z m45 -30 c-3 -5 -12 -10 -18 -10 -7 0 -6 4 3 10 19
12 23 12 15 0z m1050 -122 c14 -6 25 -18 25 -26 0 -12 -3 -12 -15 -2 -11 9
-19 10 -26 3 -8 -8 -2 -13 20 -18 17 -4 31 -10 31 -13 0 -4 11 -12 25 -19 14
-6 25 -8 25 -3 0 4 -7 11 -16 14 -16 6 -11 26 7 26 6 0 7 -5 4 -11 -4 -6 -1
-9 6 -8 19 3 79 -21 79 -31 0 -5 13 -11 30 -15 16 -4 32 -10 35 -14 2 -5 29
-21 60 -36 31 -16 55 -35 55 -44 0 -11 3 -12 11 -4 24 24 129 -48 129 -87 0
-17 -6 -16 -67 17 -38 19 -69 39 -71 44 -2 5 -10 9 -18 9 -26 0 -104 44 -105
59 0 12 -2 12 -6 3 -4 -11 -8 -10 -22 1 -9 8 -33 20 -53 27 -41 13 -47 24 -22
38 15 8 14 10 -2 16 -10 4 -15 4 -12 0 4 -3 2 -11 -4 -18 -9 -9 -30 -3 -90 27
-79 38 -93 49 -60 44 9 -1 17 3 17 8 0 6 -5 9 -12 7 -7 -2 -13 2 -13 8 0 13
23 13 55 -2z m-2185 -8 c0 -5 -5 -10 -11 -10 -5 0 -7 5 -4 10 3 6 8 10 11 10
2 0 4 -4 4 -10z m3239 -169 l20 -54 -30 -28 c-49 -46 -68 -47 -105 -5 -51 57
-113 46 -148 -28 -21 -45 -21 -67 1 -36 41 60 51 60 85 3 l16 -28 -151 -103
c-84 -56 -161 -102 -172 -102 -11 0 -38 11 -60 23 l-40 23 3 75 c3 95 6 103
31 87 17 -10 23 -9 40 6 21 19 21 19 21 -4 0 -33 20 -12 24 25 3 28 58 84 82
85 6 0 17 7 24 15 7 9 19 14 27 11 13 -5 30 1 73 26 8 5 30 15 48 23 18 9 42
27 54 40 17 20 31 25 70 25 39 0 48 3 49 18 1 9 5 4 9 -13 4 -16 17 -54 29
-84z m56 -29 c-3 -3 -11 0 -18 7 -9 10 -8 11 6 5 10 -3 15 -9 12 -12z m-1569
-36 c15 -12 17 -18 8 -33 -14 -23 -43 -23 -57 -1 -8 12 -7 21 2 32 16 20 22
20 47 2z m1567 -1 c-3 -9 -8 -14 -10 -11 -3 3 -2 9 2 15 9 16 15 13 8 -4z m52
6 c3 -5 1 -12 -5 -16 -5 -3 -10 1 -10 9 0 18 6 21 15 7z m-231 -50 l28 -29
-23 -7 c-23 -7 -36 3 -60 48 -16 29 24 21 55 -12z m140 -26 c-28 -22 -40 -18
-13 4 13 11 26 17 28 15 3 -2 -4 -11 -15 -19z m-1464 -27 c0 -46 -115 -128
-227 -162 -99 -30 -243 -8 -243 37 0 10 29 13 118 12 115 0 118 1 192 36 41
20 91 51 110 67 42 37 50 39 50 10z m1420 3 c0 -5 -8 -12 -17 -15 -33 -13 -63
-31 -63 -38 0 -5 -6 -8 -14 -8 -7 0 -29 -13 -49 -29 -20 -15 -51 -34 -69 -42
-18 -7 -37 -18 -41 -23 -6 -7 -7 -6 -5 3 2 7 22 24 44 36 22 12 73 45 114 73
73 50 100 61 100 43z m-1000 -30 c0 -74 -197 -182 -328 -180 -84 1 -106 10
-110 42 -3 26 -2 26 28 16 17 -6 61 -9 99 -7 79 4 188 52 256 112 46 41 55 43
55 17z m1350 -1 c0 -5 -5 -10 -11 -10 -5 0 -7 5 -4 10 3 6 8 10 11 10 2 0 4
-4 4 -10z m-951 -143 c0 -21 -1 -21 -9 -2 -12 28 -12 37 0 30 6 -3 10 -16 9
-28z m-5529 -1 c0 -3 -4 -8 -10 -11 -5 -3 -10 -1 -10 4 0 6 5 11 10 11 6 0 10
-2 10 -4z m5830 -6 c0 -5 -5 -10 -11 -10 -5 0 -7 5 -4 10 3 6 8 10 11 10 2 0
4 -4 4 -10z m-10 -26 c0 -2 -9 -4 -21 -4 -11 0 -18 4 -14 10 5 8 35 3 35 -6z
m-230 -14 c18 -12 2 -12 -25 0 -13 6 -15 9 -5 9 8 0 22 -4 30 -9z m184 2 c3
-5 -9 -19 -26 -32 -18 -13 -29 -17 -26 -9 3 8 15 19 27 25 16 8 19 13 9 17 -8
4 -9 6 -1 6 6 1 14 -3 17 -7z m-179 -32 c3 -6 -1 -7 -9 -4 -18 7 -21 14 -7 14
6 0 13 -4 16 -10z m-90 -20 c4 -6 11 -8 16 -5 5 4 16 -1 25 -9 14 -15 14 -16
0 -16 -9 0 -16 4 -16 10 0 5 -6 7 -13 4 -8 -3 -20 2 -27 11 -8 9 -8 15 -2 15
6 0 14 -5 17 -10z m188 -7 c-13 -2 -33 -2 -45 0 -13 2 -3 4 22 4 25 0 35 -2
23 -4z m-2108 -533 c3 -5 1 -10 -4 -10 -6 0 -11 5 -11 10 0 6 2 10 4 10 3 0 8
-4 11 -10z"/>
<path d="M5011 2899 c-7 -12 -10 -23 -8 -26 3 -3 11 5 17 17 6 12 10 23 8 25
-2 2 -10 -5 -17 -16z"/>
<path d="M5701 2793 c-1 -6 3 -14 8 -17 5 -3 7 -16 5 -29 -2 -12 -2 -17 1 -10
8 16 58 -35 51 -53 -3 -9 0 -11 11 -7 11 4 14 2 9 -5 -4 -7 -2 -12 3 -12 13 0
13 -2 2 38 l-10 33 32 -19 c22 -14 38 -17 52 -12 17 7 17 9 3 9 -10 1 -18 6
-18 12 0 5 -5 7 -10 4 -6 -4 -24 5 -41 20 -23 19 -35 23 -44 15 -10 -8 -15 -8
-21 1 -5 8 -3 9 6 4 9 -5 11 -4 6 3 -4 7 -13 12 -21 12 -7 0 -16 6 -18 13 -4
9 -6 9 -6 0z"/>
<path d="M5720 2704 c0 -11 -14 -27 -31 -37 -18 -10 -29 -20 -25 -24 3 -3 14
1 23 9 10 9 28 19 41 22 26 8 28 19 7 36 -12 10 -15 9 -15 -6z"/>
<path d="M5810 2683 c0 -25 15 -38 25 -22 4 6 0 18 -9 27 -15 15 -16 15 -16
-5z"/>
<path d="M5710 2605 c-11 -13 -10 -14 3 -9 25 9 40 -5 25 -24 -11 -13 -11 -14
2 -10 23 7 24 35 2 47 -15 8 -23 7 -32 -4z"/>
<path d="M5565 2550 c-3 -5 -12 -7 -20 -4 -8 4 -18 -1 -21 -10 -7 -19 28 -63
51 -63 16 0 33 43 27 70 -4 18 -27 23 -37 7z"/>
<path d="M6270 2490 c0 -5 5 -10 11 -10 5 0 7 5 4 10 -3 6 -8 10 -11 10 -2 0
-4 -4 -4 -10z"/>
<path d="M6335 2300 c3 -5 1 -10 -5 -10 -6 0 -8 -4 -5 -10 3 -5 11 -10 16 -10
6 0 7 5 4 10 -8 13 5 13 25 0 12 -8 12 -10 1 -10 -20 0 -8 -10 18 -15 32 -6
25 11 -15 34 -39 23 -48 26 -39 11z"/>
<path d="M5384 2672 c-6 -4 -14 -14 -17 -22 -4 -12 -6 -12 -6 2 -1 11 -6 15
-16 12 -12 -5 -13 -10 -4 -20 17 -21 47 -17 54 7 8 24 4 31 -11 21z"/>
<path d="M5020 2649 c0 -24 23 -21 28 4 2 10 -3 17 -12 17 -10 0 -16 -9 -16
-21z"/>
<path d="M4980 2656 c0 -2 7 -9 15 -16 12 -10 15 -10 15 4 0 9 -7 16 -15 16
-8 0 -15 -2 -15 -4z"/>
<path d="M6455 2330 c4 -6 11 -8 16 -5 14 9 11 15 -7 15 -8 0 -12 -5 -9 -10z"/>
<path d="M4850 2070 c0 -12 236 -131 244 -123 14 15 0 25 -106 78 -112 55
-138 64 -138 45z"/>
<path d="M4912 1838 c3 -7 13 -15 22 -16 12 -3 17 1 14 10 -3 7 -13 15 -22 16
-12 3 -17 -1 -14 -10z"/>
<path d="M6220 2086 c14 -8 28 -12 33 -9 11 7 7 9 -28 17 l-30 6 25 -14z"/>
<path d="M6155 1940 c-3 -6 1 -7 9 -4 18 7 21 14 7 14 -6 0 -13 -4 -16 -10z"/>
<path d="M5927 1432 c-9 -10 -23 -37 -31 -60 l-15 -42 49 -25 c52 -26 80 -32
80 -15 0 12 -37 32 -75 40 -24 5 -30 11 -27 31 1 13 12 37 23 52 24 33 21 46
-4 19z"/>
<path d="M6160 1350 c0 -13 5 -20 13 -17 6 2 12 10 12 17 0 7 -6 15 -12 18 -8
2 -13 -5 -13 -18z"/>
<path d="M5830 1210 c0 -6 4 -9 9 -5 5 3 12 1 16 -4 6 -11 45 -10 45 1 0 4 -9
8 -19 8 -11 0 -26 3 -35 6 -9 3 -16 1 -16 -6z"/>
<path d="M5950 1149 c0 -5 5 -7 10 -4 6 3 10 8 10 11 0 2 -4 4 -10 4 -5 0 -10
-5 -10 -11z"/>
<path d="M5983 1146 c-9 -11 -9 -15 0 -19 7 -3 14 3 14 14 2 22 2 22 -14 5z"/>
<path d="M6010 1120 c0 -5 5 -10 10 -10 6 0 10 5 10 10 0 6 -4 10 -10 10 -5 0
-10 -4 -10 -10z"/>
<path d="M6072 1094 c2 -11 15 -18 38 -20 l35 -3 -33 12 c-18 7 -30 16 -26 20
4 4 2 7 -5 7 -7 0 -11 -7 -9 -16z"/>
<path d="M6150 1060 c-9 -6 -10 -10 -3 -10 6 0 15 5 18 10 8 12 4 12 -15 0z"/>
<path d="M6716 1161 c-4 -5 -2 -12 3 -15 5 -4 12 -2 15 3 4 5 2 12 -3 15 -5 4
-12 2 -15 -3z"/>
</g>
</svg>
